<?xml version="1.0" encoding="utf-8"?>
<!-- Generator: Adobe Illustrator 19.0.0, SVG Export Plug-In . SVG Version: 6.00 Build 0)  -->
<svg version="1.1" id="Layer_1" xmlns="http://www.w3.org/2000/svg" xmlns:xlink="http://www.w3.org/1999/xlink" x="0px" y="0px"
	 viewBox="0 0 800 600" style="enable-background:new 0 0 800 600;" xml:space="preserve">
<style type="text/css">
	.st0{clip-path:url(#XMLID_23_);}
	.st1{clip-path:url(#XMLID_26_);fill:#603593;}
	.st2{clip-path:url(#XMLID_28_);}
	.st3{clip-path:url(#XMLID_30_);fill:#4BAE4F;}
	.st4{clip-path:url(#XMLID_31_);}
	.st5{clip-path:url(#XMLID_33_);enable-background:new    ;}
	.st6{clip-path:url(#XMLID_35_);}
	.st7{clip-path:url(#XMLID_38_);}
	.st8{clip-path:url(#XMLID_40_);fill:#603593;}
	.st9{clip-path:url(#XMLID_42_);}
	.st10{clip-path:url(#XMLID_43_);enable-background:new    ;}
	.st11{clip-path:url(#XMLID_45_);}
	.st12{clip-path:url(#XMLID_47_);}
	.st13{clip-path:url(#XMLID_48_);fill:#603593;}
</style>
<g id="XMLID_19_">
	<g id="XMLID_49_">
		<defs>
			<path id="XMLID_16_" d="M43.4,532.9h642.2c12.8,0,23.2-10.5,23.2-23.5c0-13-10.4-23.5-23.2-23.5h-619V162.8
				c0-13-10.4-23.5-23.2-23.5s-23.2,10.5-23.2,23.5v346.6C20.2,522.4,30.6,532.9,43.4,532.9"/>
		</defs>
		<clipPath id="XMLID_23_">
			<use xlink:href="#XMLID_16_"  style="overflow:visible;"/>
		</clipPath>
		<g id="XMLID_51_" class="st0">
			<defs>
				<rect id="XMLID_17_" x="-900.2" y="-4942.9" width="5616.2" height="10312"/>
			</defs>
			<clipPath id="XMLID_26_">
				<use xlink:href="#XMLID_17_"  style="overflow:visible;"/>
			</clipPath>
			<rect id="XMLID_18_" x="-57.8" y="61.3" class="st1" width="844.5" height="549.6"/>
		</g>
	</g>
	<g id="XMLID_44_">
		<defs>
			<path id="XMLID_13_" d="M336.3,264.6c0,45.6,36.4,82.6,81.3,82.6c44.9,0,81.3-37,81.3-82.6c0-45.6-36.4-82.6-81.3-82.6
				C372.7,182,336.3,219,336.3,264.6"/>
		</defs>
		<clipPath id="XMLID_28_">
			<use xlink:href="#XMLID_13_"  style="overflow:visible;"/>
		</clipPath>
		<g id="XMLID_46_" class="st2">
			<defs>
				<rect id="XMLID_14_" x="-900.2" y="-4942.9" width="5616.2" height="10312"/>
			</defs>
			<clipPath id="XMLID_30_">
				<use xlink:href="#XMLID_14_"  style="overflow:visible;"/>
			</clipPath>
			<rect id="XMLID_15_" x="258.3" y="104" class="st3" width="318.7" height="321.2"/>
		</g>
	</g>
	<g id="XMLID_32_">
		<defs>
			<polyline id="XMLID_7_" points="20.2,67.1 779.8,67.1 779.8,532.9 20.2,532.9 			"/>
		</defs>
		<clipPath id="XMLID_31_">
			<use xlink:href="#XMLID_7_"  style="overflow:visible;"/>
		</clipPath>
		<g id="XMLID_34_" class="st4">
			<defs>
				<rect id="XMLID_8_" x="-900.2" y="-4942.9" width="5616.2" height="10312"/>
			</defs>
			<clipPath id="XMLID_33_">
				<use xlink:href="#XMLID_8_"  style="overflow:visible;"/>
			</clipPath>
			<g id="XMLID_36_" class="st5">
				<g id="XMLID_37_">
					<defs>
						<rect id="XMLID_9_" x="82.6" y="64.9" width="702" height="405.6"/>
					</defs>
					<clipPath id="XMLID_35_">
						<use xlink:href="#XMLID_9_"  style="overflow:visible;"/>
					</clipPath>
					<g id="XMLID_39_" class="st6">
						<defs>
							<path id="XMLID_10_" d="M113.1,67.1h643.5c12.8,0,23.2,10.5,23.2,23.5v129.9h-46.3V114.1H136.3v300.9h597.2V308.7h46.3v129.9
								c0,13-10.4,23.5-23.2,23.5H113.1c-12.8,0-23.2-10.5-23.2-23.5v-348C90,77.6,100.3,67.1,113.1,67.1"/>
						</defs>
						<clipPath id="XMLID_38_">
							<use xlink:href="#XMLID_10_"  style="overflow:visible;"/>
						</clipPath>
						<g id="XMLID_41_" class="st7">
							<defs>
								<rect id="XMLID_11_" x="20.2" y="64.9" width="764.4" height="468"/>
							</defs>
							<clipPath id="XMLID_40_">
								<use xlink:href="#XMLID_11_"  style="overflow:visible;"/>
							</clipPath>
							<rect id="XMLID_12_" x="11.9" y="-10.9" class="st8" width="845.8" height="551"/>
						</g>
					</g>
				</g>
			</g>
		</g>
	</g>
	<g id="XMLID_20_">
		<defs>
			<rect id="XMLID_1_" x="20.2" y="67.1" width="759.5" height="465.8"/>
		</defs>
		<clipPath id="XMLID_42_">
			<use xlink:href="#XMLID_1_"  style="overflow:visible;"/>
		</clipPath>
		<g id="XMLID_22_" class="st9">
			<defs>
				<rect id="XMLID_2_" x="-900.2" y="-4942.9" width="5616.2" height="10312"/>
			</defs>
			<clipPath id="XMLID_43_">
				<use xlink:href="#XMLID_2_"  style="overflow:visible;"/>
			</clipPath>
			<g id="XMLID_24_" class="st10">
				<g id="XMLID_25_">
					<defs>
						<rect id="XMLID_3_" x="722.3" y="189.7" width="62.4" height="171.6"/>
					</defs>
					<clipPath id="XMLID_45_">
						<use xlink:href="#XMLID_3_"  style="overflow:visible;"/>
					</clipPath>
					<g id="XMLID_27_" class="st11">
						<defs>
							<rect id="XMLID_4_" x="733.4" y="197" width="46.3" height="160.4"/>
						</defs>
						<clipPath id="XMLID_47_">
							<use xlink:href="#XMLID_4_"  style="overflow:visible;"/>
						</clipPath>
						<g id="XMLID_29_" class="st12">
							<defs>
								<rect id="XMLID_5_" x="20.2" y="64.9" width="764.4" height="468"/>
							</defs>
							<clipPath id="XMLID_48_">
								<use xlink:href="#XMLID_5_"  style="overflow:visible;"/>
							</clipPath>
							<rect id="XMLID_6_" x="655.4" y="119" class="st13" width="202.3" height="316.4"/>
						</g>
					</g>
				</g>
			</g>
		</g>
	</g>
</g>
</svg>
