<?xml version="1.0" encoding="utf-8"?>
<!-- Generator: Adobe Illustrator 19.0.0, SVG Export Plug-In . SVG Version: 6.00 Build 0)  -->
<svg version="1.1" id="Layer_1" xmlns="http://www.w3.org/2000/svg" xmlns:xlink="http://www.w3.org/1999/xlink" x="0px" y="0px"
	 viewBox="0 0 800 600" style="enable-background:new 0 0 800 600;" xml:space="preserve">
<style type="text/css">
	.st0{clip-path:url(#XMLID_59_);}
	.st1{clip-path:url(#XMLID_60_);enable-background:new    ;}
	.st2{clip-path:url(#XMLID_62_);}
	.st3{clip-path:url(#XMLID_63_);}
	.st4{clip-path:url(#XMLID_65_);fill:#603593;}
	.st5{clip-path:url(#XMLID_67_);}
	.st6{clip-path:url(#XMLID_68_);enable-background:new    ;}
	.st7{clip-path:url(#XMLID_71_);}
	.st8{clip-path:url(#XMLID_72_);}
	.st9{clip-path:url(#XMLID_74_);fill:#603593;}
	.st10{clip-path:url(#XMLID_75_);}
	.st11{clip-path:url(#XMLID_77_);enable-background:new    ;}
	.st12{clip-path:url(#XMLID_79_);}
	.st13{clip-path:url(#XMLID_80_);}
	.st14{clip-path:url(#XMLID_83_);fill:#603593;}
	.st15{clip-path:url(#XMLID_84_);}
	.st16{clip-path:url(#XMLID_86_);enable-background:new    ;}
	.st17{clip-path:url(#XMLID_87_);}
	.st18{clip-path:url(#XMLID_89_);}
	.st19{clip-path:url(#XMLID_91_);fill:#603593;}
	.st20{clip-path:url(#XMLID_92_);}
	.st21{clip-path:url(#XMLID_94_);fill:#603593;}
	.st22{clip-path:url(#XMLID_96_);}
	.st23{clip-path:url(#XMLID_97_);fill:#603593;}
	.st24{clip-path:url(#XMLID_99_);}
	.st25{clip-path:url(#XMLID_101_);fill:#603593;}
	.st26{clip-path:url(#XMLID_102_);}
	.st27{clip-path:url(#XMLID_105_);fill:#4BAE4F;}
	.st28{clip-path:url(#XMLID_106_);}
	.st29{clip-path:url(#XMLID_108_);fill:#4BAE4F;}
	.st30{clip-path:url(#XMLID_109_);}
	.st31{clip-path:url(#XMLID_111_);fill:#4BAE4F;}
	.st32{clip-path:url(#XMLID_113_);}
	.st33{clip-path:url(#XMLID_116_);fill:#4BAE4F;}
	.st34{clip-path:url(#XMLID_118_);}
	.st35{clip-path:url(#XMLID_120_);fill:#4BAE4F;}
	.st36{clip-path:url(#XMLID_121_);}
	.st37{clip-path:url(#XMLID_123_);fill:#4BAE4F;}
</style>
<g id="XMLID_146_">
	<defs>
		<path id="XMLID_50_" d="M307.1,150.3c-13.9,0-24.7,10.8-24.7,24.6c0,13.1,10.8,24.6,24.7,24.6h49.3c13.9,0,24.7-10.8,24.7-24.6
			c0-13.8-10.8-24.6-24.7-24.6H307.1z"/>
	</defs>
	<clipPath id="XMLID_59_">
		<use xlink:href="#XMLID_50_"  style="overflow:visible;"/>
	</clipPath>
	<g id="XMLID_148_" class="st0">
		<defs>
			<rect id="XMLID_51_" x="-869.8" y="-6016.9" width="5477.8" height="10057.8"/>
		</defs>
		<clipPath id="XMLID_60_">
			<use xlink:href="#XMLID_51_"  style="overflow:visible;"/>
		</clipPath>
		<g id="XMLID_150_" class="st1">
			<g id="XMLID_151_">
				<defs>
					<rect id="XMLID_52_" x="271.4" y="145.6" width="121.7" height="60.9"/>
				</defs>
				<clipPath id="XMLID_62_">
					<use xlink:href="#XMLID_52_"  style="overflow:visible;"/>
				</clipPath>
				<g id="XMLID_153_" class="st2">
					<defs>
						<rect id="XMLID_53_" x="256.6" y="124.5" width="150.3" height="100.8"/>
					</defs>
					<clipPath id="XMLID_63_">
						<use xlink:href="#XMLID_53_"  style="overflow:visible;"/>
					</clipPath>
					<g id="XMLID_155_" class="st3">
						<defs>
							<rect id="XMLID_54_" x="271.4" y="145.6" width="121.7" height="60.9"/>
						</defs>
						<clipPath id="XMLID_65_">
							<use xlink:href="#XMLID_54_"  style="overflow:visible;"/>
						</clipPath>
						<rect id="XMLID_55_" x="180.6" y="48.4" class="st4" width="302.5" height="253"/>
					</g>
				</g>
			</g>
		</g>
	</g>
</g>
<g id="XMLID_134_">
	<defs>
		<path id="XMLID_44_" d="M307.1,248.7c-13.9,0-24.7,10.8-24.7,24.6c0,13.8,10.8,24.6,24.7,24.6h198.1c13.9,0,24.7-10.8,24.7-24.6
			c-0.8-13.8-11.6-24.6-25.4-24.6H307.1z"/>
	</defs>
	<clipPath id="XMLID_67_">
		<use xlink:href="#XMLID_44_"  style="overflow:visible;"/>
	</clipPath>
	<g id="XMLID_136_" class="st5">
		<defs>
			<rect id="XMLID_45_" x="-869.8" y="-6016.9" width="5477.8" height="10057.8"/>
		</defs>
		<clipPath id="XMLID_68_">
			<use xlink:href="#XMLID_45_"  style="overflow:visible;"/>
		</clipPath>
		<g id="XMLID_138_" class="st6">
			<g id="XMLID_139_">
				<defs>
					<rect id="XMLID_46_" x="271.4" y="236.9" width="258.7" height="76.1"/>
				</defs>
				<clipPath id="XMLID_71_">
					<use xlink:href="#XMLID_46_"  style="overflow:visible;"/>
				</clipPath>
				<g id="XMLID_141_" class="st7">
					<defs>
						<rect id="XMLID_47_" x="256.6" y="222.8" width="299.1" height="100.8"/>
					</defs>
					<clipPath id="XMLID_72_">
						<use xlink:href="#XMLID_47_"  style="overflow:visible;"/>
					</clipPath>
					<g id="XMLID_143_" class="st8">
						<defs>
							<rect id="XMLID_48_" x="271.4" y="236.9" width="258.7" height="76.1"/>
						</defs>
						<clipPath id="XMLID_74_">
							<use xlink:href="#XMLID_48_"  style="overflow:visible;"/>
						</clipPath>
						<rect id="XMLID_49_" x="180.6" y="146.8" class="st9" width="451.2" height="253"/>
					</g>
				</g>
			</g>
		</g>
	</g>
</g>
<g id="XMLID_122_">
	<defs>
		<path id="XMLID_38_" d="M307.1,347c-13.9,0-24.7,10.8-24.7,24.6c0,13.8,10.8,24.6,24.7,24.6h198.1c13.9,0,24.7-10.8,24.7-24.6
			c-0.8-13.1-11.6-24.6-25.4-24.6H307.1z"/>
	</defs>
	<clipPath id="XMLID_75_">
		<use xlink:href="#XMLID_38_"  style="overflow:visible;"/>
	</clipPath>
	<g id="XMLID_124_" class="st10">
		<defs>
			<rect id="XMLID_39_" x="-869.8" y="-6016.9" width="5477.8" height="10057.8"/>
		</defs>
		<clipPath id="XMLID_77_">
			<use xlink:href="#XMLID_39_"  style="overflow:visible;"/>
		</clipPath>
		<g id="XMLID_126_" class="st11">
			<g id="XMLID_127_">
				<defs>
					<rect id="XMLID_40_" x="271.4" y="343.4" width="258.7" height="60.9"/>
				</defs>
				<clipPath id="XMLID_79_">
					<use xlink:href="#XMLID_40_"  style="overflow:visible;"/>
				</clipPath>
				<g id="XMLID_129_" class="st12">
					<defs>
						<rect id="XMLID_41_" x="256.6" y="321.2" width="299.1" height="100.8"/>
					</defs>
					<clipPath id="XMLID_80_">
						<use xlink:href="#XMLID_41_"  style="overflow:visible;"/>
					</clipPath>
					<g id="XMLID_131_" class="st13">
						<defs>
							<rect id="XMLID_42_" x="271.4" y="343.4" width="258.7" height="60.9"/>
						</defs>
						<clipPath id="XMLID_83_">
							<use xlink:href="#XMLID_42_"  style="overflow:visible;"/>
						</clipPath>
						<rect id="XMLID_43_" x="180.6" y="245.1" class="st14" width="451.2" height="253"/>
					</g>
				</g>
			</g>
		</g>
	</g>
</g>
<g id="XMLID_110_">
	<defs>
		<path id="XMLID_32_" d="M307.1,445.3c-13.9,0-24.7,10.8-24.7,24.6c0,13.8,10.8,24.6,24.7,24.6h98.7c13.9,0,24.7-10.8,24.7-24.6
			c0-13.1-10.8-24.6-24.7-24.6H307.1z"/>
	</defs>
	<clipPath id="XMLID_84_">
		<use xlink:href="#XMLID_32_"  style="overflow:visible;"/>
	</clipPath>
	<g id="XMLID_112_" class="st15">
		<defs>
			<rect id="XMLID_33_" x="-869.8" y="-6016.9" width="5477.8" height="10057.8"/>
		</defs>
		<clipPath id="XMLID_86_">
			<use xlink:href="#XMLID_33_"  style="overflow:visible;"/>
		</clipPath>
		<g id="XMLID_114_" class="st16">
			<g id="XMLID_115_">
				<defs>
					<rect id="XMLID_34_" x="271.4" y="434.7" width="167.4" height="60.9"/>
				</defs>
				<clipPath id="XMLID_87_">
					<use xlink:href="#XMLID_34_"  style="overflow:visible;"/>
				</clipPath>
				<g id="XMLID_117_" class="st17">
					<defs>
						<rect id="XMLID_35_" x="256.6" y="419.5" width="199.6" height="100.8"/>
					</defs>
					<clipPath id="XMLID_89_">
						<use xlink:href="#XMLID_35_"  style="overflow:visible;"/>
					</clipPath>
					<g id="XMLID_119_" class="st18">
						<defs>
							<rect id="XMLID_36_" x="271.4" y="434.7" width="167.4" height="60.9"/>
						</defs>
						<clipPath id="XMLID_91_">
							<use xlink:href="#XMLID_36_"  style="overflow:visible;"/>
						</clipPath>
						<rect id="XMLID_37_" x="180.6" y="343.4" class="st19" width="351.8" height="253"/>
					</g>
				</g>
			</g>
		</g>
	</g>
</g>
<g id="XMLID_103_">
	<defs>
		<path id="XMLID_104_" d="M620.1,157.3L472.9,9.8c-4.6-4.6-10.8-6.9-17.7-6.9H207.7c-13.9,0-24.7,10.8-24.7,24.6v542.3
			c0,13.8,10.8,24.6,24.7,24.6h106.9v-49.9h-82.2V51.3h148c27,0,49.3,22.3,49.3,49.2v74.5c0,13.8,10.8,24.6,24.7,24.6h123.3v172.8
			c0,13.8,10.8,24.6,24.7,24.6c13.9,0,24.7-10.8,24.7-24.6V174.9C627,168.8,624.7,162.6,620.1,157.3z M479.8,150.3V86.6l64,63.8
			H479.8z"/>
	</defs>
	<clipPath id="XMLID_92_">
		<use xlink:href="#XMLID_104_"  style="overflow:visible;"/>
	</clipPath>
	<g id="XMLID_107_" class="st20">
		<defs>
			<rect id="XMLID_30_" x="-869.8" y="-6016.9" width="5477.8" height="10057.8"/>
		</defs>
		<clipPath id="XMLID_94_">
			<use xlink:href="#XMLID_30_"  style="overflow:visible;"/>
		</clipPath>
		<rect id="XMLID_31_" x="106.9" y="-73.2" class="st21" width="596.1" height="743.6"/>
	</g>
</g>
<g id="XMLID_98_">
	<defs>
		<path id="XMLID_25_" d="M478.2,594.3c13.9,0,24.7-10.8,24.7-24.6c0-14.6-10.8-25.3-24.7-25.3h-64.2v49.9H478.2z"/>
	</defs>
	<clipPath id="XMLID_96_">
		<use xlink:href="#XMLID_25_"  style="overflow:visible;"/>
	</clipPath>
	<g id="XMLID_100_" class="st22">
		<defs>
			<rect id="XMLID_26_" x="-869.8" y="-6016.9" width="5477.8" height="10057.8"/>
		</defs>
		<clipPath id="XMLID_97_">
			<use xlink:href="#XMLID_26_"  style="overflow:visible;"/>
		</clipPath>
		<rect id="XMLID_27_" x="338" y="468.3" class="st23" width="241" height="202.1"/>
	</g>
</g>
<g id="XMLID_93_">
	<defs>
		<rect id="XMLID_22_" x="314.6" y="544.4" width="135.4" height="49.9"/>
	</defs>
	<clipPath id="XMLID_99_">
		<use xlink:href="#XMLID_22_"  style="overflow:visible;"/>
	</clipPath>
	<g id="XMLID_95_" class="st24">
		<defs>
			<rect id="XMLID_23_" x="-869.8" y="-6016.9" width="5477.8" height="10057.8"/>
		</defs>
		<clipPath id="XMLID_101_">
			<use xlink:href="#XMLID_23_"  style="overflow:visible;"/>
		</clipPath>
		<rect id="XMLID_24_" x="238.5" y="468.3" class="st25" width="287.5" height="202.1"/>
	</g>
</g>
<g id="XMLID_88_">
	<defs>
		<path id="XMLID_19_" d="M618.7,584V464.2c0-5.7-6.2-10.4-13.9-10.4c-7.7,0-13.9,4.6-13.9,10.4V584c0,5.7,6.2,10.3,13.9,10.3
			C612.5,594.3,618.7,589.7,618.7,584"/>
	</defs>
	<clipPath id="XMLID_102_">
		<use xlink:href="#XMLID_19_"  style="overflow:visible;"/>
	</clipPath>
	<g id="XMLID_90_" class="st26">
		<defs>
			<rect id="XMLID_20_" x="-869.8" y="-6016.9" width="5477.8" height="10057.8"/>
		</defs>
		<clipPath id="XMLID_105_">
			<use xlink:href="#XMLID_20_"  style="overflow:visible;"/>
		</clipPath>
		<rect id="XMLID_21_" x="514.8" y="377.7" class="st27" width="180" height="292.7"/>
	</g>
</g>
<g id="XMLID_81_">
	<defs>
		<path id="XMLID_82_" d="M604.8,598.9c-10.4,0-18.5-6.5-18.5-14.9V464.2c0-8.3,8.1-14.9,18.5-14.9c10.4,0,18.5,6.5,18.5,14.9V584
			C623.3,592.3,615.2,598.9,604.8,598.9 M604.8,458.3c-5.5,0-9.4,3.1-9.4,5.8V584c0,2.8,3.9,5.8,9.4,5.8s9.4-3.1,9.4-5.8V464.2
			C614.2,461.4,610.4,458.3,604.8,458.3"/>
	</defs>
	<clipPath id="XMLID_106_">
		<use xlink:href="#XMLID_82_"  style="overflow:visible;"/>
	</clipPath>
	<g id="XMLID_85_" class="st28">
		<defs>
			<rect id="XMLID_17_" x="-869.8" y="-6016.9" width="5477.8" height="10057.8"/>
		</defs>
		<clipPath id="XMLID_108_">
			<use xlink:href="#XMLID_17_"  style="overflow:visible;"/>
		</clipPath>
		<rect id="XMLID_18_" x="510.3" y="373.2" class="st29" width="189.1" height="301.7"/>
	</g>
</g>
<g id="XMLID_76_">
	<defs>
		<path id="XMLID_12_" d="M618.7,463.3c0-3.6-1.4-7.1-4.1-9.8c-5.4-5.4-14.3-5.4-19.7,0l-42.9,42.9c-5.4,5.4-5.4,14.3,0,19.7
			c5.4,5.4,14.3,5.4,19.7,0l42.9-42.9C617.4,470.4,618.7,466.9,618.7,463.3"/>
	</defs>
	<clipPath id="XMLID_109_">
		<use xlink:href="#XMLID_12_"  style="overflow:visible;"/>
	</clipPath>
	<g id="XMLID_78_" class="st30">
		<defs>
			<rect id="XMLID_13_" x="-869.8" y="-6016.9" width="5477.8" height="10057.8"/>
		</defs>
		<clipPath id="XMLID_111_">
			<use xlink:href="#XMLID_13_"  style="overflow:visible;"/>
		</clipPath>
		<rect id="XMLID_14_" x="471.9" y="373.3" class="st31" width="222.9" height="222.9"/>
	</g>
</g>
<g id="XMLID_69_">
	<defs>
		<path id="XMLID_70_" d="M561.9,524.6c-4.7,0-9.5-1.8-13.1-5.4c-7.2-7.2-7.2-18.9,0-26.1l42.9-42.9c7-7,19.1-7,26.1,0
			c3.5,3.5,5.4,8.1,5.4,13c0,4.9-1.9,9.6-5.4,13.1L575,519.2C571.4,522.8,566.7,524.6,561.9,524.6 M604.8,453.9
			c-2.5,0-4.9,1-6.6,2.8l-42.9,42.9c-3.7,3.7-3.7,9.6,0,13.3c3.7,3.7,9.6,3.7,13.3,0l42.9-42.9c1.8-1.8,2.7-4.1,2.7-6.7
			c0-2.5-1-4.9-2.8-6.7C609.7,454.9,607.3,453.9,604.8,453.9"/>
	</defs>
	<clipPath id="XMLID_113_">
		<use xlink:href="#XMLID_70_"  style="overflow:visible;"/>
	</clipPath>
	<g id="XMLID_73_" class="st32">
		<defs>
			<rect id="XMLID_10_" x="-869.8" y="-6016.9" width="5477.8" height="10057.8"/>
		</defs>
		<clipPath id="XMLID_116_">
			<use xlink:href="#XMLID_10_"  style="overflow:visible;"/>
		</clipPath>
		<rect id="XMLID_11_" x="467.4" y="368.9" class="st33" width="232" height="231.8"/>
	</g>
</g>
<g id="XMLID_64_">
	<defs>
		<path id="XMLID_5_" d="M661.6,506.2c0-3.6-1.4-7.1-4.1-9.8l-42.9-42.9c-5.4-5.4-14.3-5.4-19.7,0c-5.4,5.4-5.4,14.3,0,19.7
			l42.9,42.9c5.4,5.4,14.3,5.4,19.7,0C660.3,513.3,661.6,509.7,661.6,506.2"/>
	</defs>
	<clipPath id="XMLID_118_">
		<use xlink:href="#XMLID_5_"  style="overflow:visible;"/>
	</clipPath>
	<g id="XMLID_66_" class="st34">
		<defs>
			<rect id="XMLID_6_" x="-869.8" y="-6016.9" width="5477.8" height="10057.8"/>
		</defs>
		<clipPath id="XMLID_120_">
			<use xlink:href="#XMLID_6_"  style="overflow:visible;"/>
		</clipPath>
		<rect id="XMLID_7_" x="514.8" y="373.3" class="st35" width="222.9" height="222.9"/>
	</g>
</g>
<g id="XMLID_57_">
	<defs>
		<path id="XMLID_58_" d="M647.7,524.6c-4.7,0-9.5-1.8-13.1-5.4l-42.9-42.9c-3.5-3.5-5.4-8.1-5.4-13.1c0-4.9,1.9-9.6,5.4-13.1
			c7-7,19.1-7,26.1,0l42.9,42.9c3.5,3.5,5.4,8.1,5.4,13.1c0,4.9-1.9,9.6-5.4,13C657.1,522.8,652.4,524.6,647.7,524.6 M604.8,453.9
			c-2.5,0-4.9,1-6.6,2.8c-1.8,1.8-2.8,4.1-2.8,6.7c0,2.5,1,4.9,2.8,6.7l42.9,42.9c3.7,3.7,9.6,3.7,13.3,0c1.8-1.8,2.8-4.1,2.8-6.6
			c0-2.5-1-4.9-2.8-6.7l-42.9-42.9C609.7,454.9,607.3,453.9,604.8,453.9"/>
	</defs>
	<clipPath id="XMLID_121_">
		<use xlink:href="#XMLID_58_"  style="overflow:visible;"/>
	</clipPath>
	<g id="XMLID_61_" class="st36">
		<defs>
			<rect id="XMLID_3_" x="-869.8" y="-6016.9" width="5477.8" height="10057.8"/>
		</defs>
		<clipPath id="XMLID_123_">
			<use xlink:href="#XMLID_3_"  style="overflow:visible;"/>
		</clipPath>
		<rect id="XMLID_4_" x="510.3" y="368.9" class="st37" width="232" height="231.8"/>
	</g>
</g>
</svg>
