<?xml version="1.0" encoding="utf-8"?>
<!-- Generator: Adobe Illustrator 19.0.0, SVG Export Plug-In . SVG Version: 6.00 Build 0)  -->
<svg version="1.1" id="Layer_1" xmlns="http://www.w3.org/2000/svg" xmlns:xlink="http://www.w3.org/1999/xlink" x="0px" y="0px"
	 viewBox="0 0 862.6 600" style="enable-background:new 0 0 862.6 600;" xml:space="preserve">
<style type="text/css">
	.st0{clip-path:url(#XMLID_81_);}
	.st1{clip-path:url(#XMLID_82_);fill:#603593;}
	.st2{clip-path:url(#XMLID_83_);}
	.st3{clip-path:url(#XMLID_84_);fill:#603593;}
	.st4{clip-path:url(#XMLID_85_);}
	.st5{clip-path:url(#XMLID_86_);enable-background:new    ;}
	.st6{clip-path:url(#XMLID_87_);}
	.st7{clip-path:url(#XMLID_88_);}
	.st8{clip-path:url(#XMLID_89_);fill:#603593;}
	.st9{clip-path:url(#XMLID_90_);}
	.st10{clip-path:url(#XMLID_91_);enable-background:new    ;}
	.st11{clip-path:url(#XMLID_92_);}
	.st12{clip-path:url(#XMLID_93_);}
	.st13{clip-path:url(#XMLID_94_);fill:#603593;}
	.st14{clip-path:url(#XMLID_95_);}
	.st15{clip-path:url(#XMLID_96_);fill:#4BAE4F;}
	.st16{clip-path:url(#XMLID_97_);}
	.st17{clip-path:url(#XMLID_98_);fill:#4BAE4F;}
	.st18{clip-path:url(#XMLID_99_);}
	.st19{clip-path:url(#XMLID_100_);fill:#4BAE4F;}
</style>
<g id="XMLID_29_">
	<g id="XMLID_78_">
		<defs>
			<path id="XMLID_26_" d="M630.5,583.1c-12.6,0-22.7-10.3-22.7-23V170.8c0-12.7,10.2-23,22.7-23c12.6,0,22.7,10.3,22.7,23v389.3
				C653.2,572.8,643.1,583.1,630.5,583.1"/>
		</defs>
		<clipPath id="XMLID_81_">
			<use xlink:href="#XMLID_26_"  style="overflow:visible;"/>
		</clipPath>
		<g id="XMLID_80_" class="st0">
			<defs>
				<rect id="XMLID_27_" x="-580.3" y="-6642.3" width="5161" height="9476.2"/>
			</defs>
			<clipPath id="XMLID_82_">
				<use xlink:href="#XMLID_27_"  style="overflow:visible;"/>
			</clipPath>
			<rect id="XMLID_28_" x="536.1" y="76.1" class="st1" width="188.8" height="578.7"/>
		</g>
	</g>
	<g id="XMLID_73_">
		<defs>
			<path id="XMLID_23_" d="M823,388.4H438c-12.6,0-22.7-10.3-22.7-23c0-12.7,10.2-23,22.7-23H823c12.5,0,22.7,10.3,22.7,23
				C845.8,378.2,835.6,388.4,823,388.4"/>
		</defs>
		<clipPath id="XMLID_83_">
			<use xlink:href="#XMLID_23_"  style="overflow:visible;"/>
		</clipPath>
		<g id="XMLID_75_" class="st2">
			<defs>
				<rect id="XMLID_24_" x="-580.3" y="-6642.3" width="5161" height="9476.2"/>
			</defs>
			<clipPath id="XMLID_84_">
				<use xlink:href="#XMLID_24_"  style="overflow:visible;"/>
			</clipPath>
			<rect id="XMLID_25_" x="343.5" y="270.8" class="st3" width="573.9" height="189.3"/>
		</g>
	</g>
	<g id="XMLID_61_">
		<defs>
			<polyline id="XMLID_17_" points="7.5,12.6 848.8,12.6 848.8,583.1 7.5,583.1 			"/>
		</defs>
		<clipPath id="XMLID_85_">
			<use xlink:href="#XMLID_17_"  style="overflow:visible;"/>
		</clipPath>
		<g id="XMLID_63_" class="st4">
			<defs>
				<rect id="XMLID_18_" x="-580.3" y="-6642.3" width="5161" height="9476.2"/>
			</defs>
			<clipPath id="XMLID_86_">
				<use xlink:href="#XMLID_18_"  style="overflow:visible;"/>
			</clipPath>
			<g id="XMLID_65_" class="st5">
				<g id="XMLID_66_">
					<defs>
						<rect id="XMLID_19_" x="494.9" y="9.7" width="272.4" height="172"/>
					</defs>
					<clipPath id="XMLID_87_">
						<use xlink:href="#XMLID_19_"  style="overflow:visible;"/>
					</clipPath>
					<g id="XMLID_68_" class="st6">
						<defs>
							<path id="XMLID_20_" d="M627.9,168.7c-5.8,0-11.6-2.2-16.1-6.7L508,57c-8.9-9-8.9-23.5,0-32.5c8.9-9,23.3-9,32.2,0l87.8,88.7
								l92.9-93.9c8.9-9,23.3-9,32.2,0c8.9,9,8.9,23.5,0,32.5L644,162C639.6,166.5,633.8,168.7,627.9,168.7"/>
						</defs>
						<clipPath id="XMLID_88_">
							<use xlink:href="#XMLID_20_"  style="overflow:visible;"/>
						</clipPath>
						<g id="XMLID_70_" class="st7">
							<defs>
								<rect id="XMLID_21_" x="7.5" y="9.7" width="845.8" height="573.4"/>
							</defs>
							<clipPath id="XMLID_89_">
								<use xlink:href="#XMLID_21_"  style="overflow:visible;"/>
							</clipPath>
							<rect id="XMLID_22_" x="429.7" y="-59.1" class="st8" width="401.6" height="299.5"/>
						</g>
					</g>
				</g>
			</g>
		</g>
	</g>
	<g id="XMLID_32_">
		<defs>
			<rect id="XMLID_1_" x="7.5" y="12.6" width="841.3" height="570.5"/>
		</defs>
		<clipPath id="XMLID_90_">
			<use xlink:href="#XMLID_1_"  style="overflow:visible;"/>
		</clipPath>
		<g id="XMLID_34_" class="st9">
			<defs>
				<rect id="XMLID_2_" x="-580.3" y="-6642.3" width="5161" height="9476.2"/>
			</defs>
			<clipPath id="XMLID_91_">
				<use xlink:href="#XMLID_2_"  style="overflow:visible;"/>
			</clipPath>
			<g id="XMLID_36_" class="st10">
				<g id="XMLID_37_">
					<defs>
						<rect id="XMLID_3_" x="7.5" y="138.7" width="845.8" height="444.4"/>
					</defs>
					<clipPath id="XMLID_92_">
						<use xlink:href="#XMLID_3_"  style="overflow:visible;"/>
					</clipPath>
					<g id="XMLID_54_" class="st11">
						<defs>
							<path id="XMLID_55_" d="M826.1,583.1H434.9c-12.6,0-22.7-10.3-22.7-23V164.7c0-12.7,10.2-23,22.7-23h391.1
								c12.6,0,22.7,10.3,22.7,23v395.4C848.8,572.8,838.6,583.1,826.1,583.1z M457.7,537.1h345.7V187.7H457.7V537.1z"/>
						</defs>
						<clipPath id="XMLID_93_">
							<use xlink:href="#XMLID_55_"  style="overflow:visible;"/>
						</clipPath>
						<g id="XMLID_58_" class="st12">
							<defs>
								<rect id="XMLID_15_" x="7.5" y="9.7" width="845.8" height="573.4"/>
							</defs>
							<clipPath id="XMLID_94_">
								<use xlink:href="#XMLID_15_"  style="overflow:visible;"/>
							</clipPath>
							<rect id="XMLID_16_" x="340.5" y="70" class="st13" width="580" height="584.8"/>
						</g>
					</g>
					<g id="XMLID_49_" class="st11">
						<defs>
							<path id="XMLID_10_" d="M338.5,212H131.9c-14.1,0-25.6-11.6-25.6-25.9c0-14.3,11.5-25.9,25.6-25.9h206.7
								c14.1,0,25.6,11.6,25.6,25.9C364.1,200.4,352.7,212,338.5,212"/>
						</defs>
						<clipPath id="XMLID_95_">
							<use xlink:href="#XMLID_10_"  style="overflow:visible;"/>
						</clipPath>
						<g id="XMLID_51_" class="st14">
							<defs>
								<rect id="XMLID_11_" x="7.5" y="9.7" width="845.8" height="573.4"/>
							</defs>
							<clipPath id="XMLID_96_">
								<use xlink:href="#XMLID_11_"  style="overflow:visible;"/>
							</clipPath>
							<rect id="XMLID_12_" x="34.6" y="88.6" class="st15" width="401.2" height="195.1"/>
						</g>
					</g>
					<g id="XMLID_44_" class="st11">
						<defs>
							<path id="XMLID_7_" d="M239.7,349.9H33.1c-14.1,0-25.6-11.6-25.6-25.9c0-14.3,11.5-25.9,25.6-25.9h206.7
								c14.1,0,25.6,11.6,25.6,25.9C265.3,338.4,253.9,349.9,239.7,349.9"/>
						</defs>
						<clipPath id="XMLID_97_">
							<use xlink:href="#XMLID_7_"  style="overflow:visible;"/>
						</clipPath>
						<g id="XMLID_46_" class="st16">
							<defs>
								<rect id="XMLID_8_" x="7.5" y="9.7" width="845.8" height="573.4"/>
							</defs>
							<clipPath id="XMLID_98_">
								<use xlink:href="#XMLID_8_"  style="overflow:visible;"/>
							</clipPath>
							<rect id="XMLID_9_" x="-64.2" y="226.5" class="st17" width="401.2" height="195.1"/>
						</g>
					</g>
					<g id="XMLID_39_" class="st11">
						<defs>
							<path id="XMLID_4_" d="M338.5,487.8H131.9c-14.1,0-25.6-11.6-25.6-25.9c0-14.3,11.5-25.9,25.6-25.9h206.7
								c14.1,0,25.6,11.6,25.6,25.9C364.1,476.3,352.7,487.8,338.5,487.8"/>
						</defs>
						<clipPath id="XMLID_99_">
							<use xlink:href="#XMLID_4_"  style="overflow:visible;"/>
						</clipPath>
						<g id="XMLID_41_" class="st18">
							<defs>
								<rect id="XMLID_5_" x="7.5" y="9.7" width="845.8" height="573.4"/>
							</defs>
							<clipPath id="XMLID_100_">
								<use xlink:href="#XMLID_5_"  style="overflow:visible;"/>
							</clipPath>
							<rect id="XMLID_6_" x="34.6" y="364.4" class="st19" width="401.2" height="195.1"/>
						</g>
					</g>
				</g>
			</g>
		</g>
	</g>
</g>
</svg>
