<?xml version="1.0" encoding="UTF-8"?>
<svg width="98px" height="29px" viewBox="0 0 98 29" version="1.1" xmlns="http://www.w3.org/2000/svg" xmlns:xlink="http://www.w3.org/1999/xlink">
    <!-- Generator: Sketch 42 (36781) - http://www.bohemiancoding.com/sketch -->
    <title>Logo</title>
    <desc>Created with Sketch.</desc>
    <defs>
        <path d="M0.00349826328,0.00256427422 L28.1870814,0.00256427422 L28.1870814,28.177061 L0.00349826328,28.177061 L23.9429074,16.0711894" id="path-1"></path>
    </defs>
    <g id="Page-1" stroke="none" stroke-width="1" fill="none" fill-rule="evenodd">
        <g id="Screen-05" transform="translate(-762.000000, -202.000000)">
            <g id="Group-5">
                <g id="Modal" transform="translate(370.000000, 162.000000)">
                    <g id="Logo" transform="translate(392.000000, 40.000000)">
                        <g id="Logo-+-Rectangle-4" transform="translate(0.000000, 0.833333)">
                            <g id="Logo">
                                <g id="Group" transform="translate(36.107142, 1.795939)">
                                    <g>
                                        <polygon id="Fill-9" fill="#FFFFFF" points="0.00761386713 0.0440400674 61.3483537 0.0440400674 61.3483537 22.3920964 0.00761386713 22.3920964"></polygon>
                                        <polyline id="Fill-10" fill="#4BAE4F" points="13.6739978 22.2311223 0 22.2311223 0 21.0851947 7.11883887 9.22474895 0 9.22474895 0 5.19786692 13.6739978 5.19786692 13.6739978 6.44301124 6.53777391 18.2024686 13.6739978 18.2024686 13.6739978 22.2311223"></polyline>
                                        <path d="M26.6053897,9.85636957 C25.9200148,9.34421396 25.1228429,9.08921185 24.2071485,9.08921185 C23.2958955,9.08921185 22.4958049,9.34421396 21.8106838,9.85636957 C21.1277199,10.3695376 20.7835731,11.0793673 20.7835731,11.9886428 L27.6300893,11.9886428 C27.6300893,11.0793673 27.2888612,10.3695376 26.6053897,9.85636957 L26.6053897,9.85636957 Z M15.6519536,13.6962079 C15.6519536,11.1951623 16.4502675,9.14590711 18.046261,7.55363088 C19.6446655,5.96084844 21.6972372,5.16255894 24.2071485,5.16255894 C26.716806,5.16255894 28.7154461,5.96084844 30.1985005,7.55363088 C31.6819356,9.14590711 32.4230187,11.1951623 32.4230187,13.6962079 L32.4230187,15.4032667 L20.6140377,15.4032667 C20.7267229,16.3107705 21.1277199,17.0236374 21.8106838,17.53921 C22.4958049,18.0476956 23.2958955,18.3051022 24.2071485,18.3051022 C25.8046647,18.3051022 27.2317572,17.8492622 28.4874108,16.9393539 L31.2238346,19.670977 C29.9686886,21.3780358 27.6300893,22.2311223 24.2071485,22.2311223 C21.6972372,22.2311223 19.6446655,21.4334656 18.046261,19.8400504 C16.4502675,18.2484069 15.6519536,16.1996579 15.6519536,13.6962079 L15.6519536,13.6962079 Z" id="Fill-11" fill="#4BAE4F"></path>
                                        <path d="M44.8938986,5.64054553 C45.7818024,6.02766785 46.613998,6.60246666 47.3909932,7.36367645 L44.7183989,10.3695376 C43.9449569,9.44760688 42.9750771,8.98581893 41.8091403,8.98581893 C40.6576698,8.98581893 39.8866388,9.20032443 39.5020116,9.62629819 C39.1149734,10.0522719 39.1149734,10.4406598 39.5020116,10.7877917 C39.8866388,11.1331519 40.6576698,11.4205513 41.8091403,11.6487244 C43.5142658,11.8083064 44.9022738,12.2909754 45.9854733,13.1011607 C47.0699418,13.9083089 47.610907,15.3130352 47.610907,17.3157193 C47.610907,18.9307748 46.9710884,20.1818671 45.6950043,21.0708943 C44.4176512,21.9581498 42.9306629,22.3996895 41.2279484,22.3996895 C39.6097479,22.3996895 38.2594285,22.1702508 37.1804167,21.7120063 C36.1055924,21.2494591 35.1782234,20.6328981 34.3994517,19.8591597 L37.0516154,16.8736734 C37.8298795,17.7930731 39.032236,18.3267425 40.6624919,18.4730366 C41.9768992,18.4730366 42.8222922,18.2627073 43.2062849,17.834329 C43.5896431,17.4107598 43.6448437,16.9812426 43.3764548,16.5575467 C43.1092081,16.1291685 42.2039193,15.8406301 40.6624919,15.6930706 C39.2701694,15.5334886 37.9945929,15.1080211 36.8347471,14.4121121 C35.6821345,13.7207589 35.1009427,12.4117059 35.1009427,10.4884964 C35.1009427,8.72410956 35.7623339,7.38101406 37.0791522,6.45123712 C38.3983816,5.52525674 39.7518734,5.0610643 41.1435614,5.0610643 C42.7514832,5.0610643 44.0000306,5.25519494 44.8938986,5.64054553" id="Fill-12" fill="#4BAE4F"></path>
                                        <path d="M58.488839,22.2311223 C56.5494602,22.2311223 55.0086672,21.690366 53.8684906,20.6084736 C52.7290754,19.5299982 52.1562588,18.1355226 52.1562588,16.4249203 L52.1562588,9.03656625 L49.5879745,9.03656625 L49.5879745,5.18166828 L52.1562588,5.18166828 L52.1562588,0.556069127 L56.9683497,0.0440400674 L56.9683497,5.18166828 L59.5348575,5.18166828 L59.5348575,9.03656625 L56.9683497,9.03656625 L56.9683497,15.7455896 C56.9683497,16.6537262 57.1570468,17.295471 57.5392629,17.6652557 C57.9197024,18.0363059 58.4163804,18.2203124 59.0172414,18.2203124 C59.2006087,18.2203124 59.6319343,18.1443812 60.3023353,17.9998589 L61.3148527,21.4275176 C60.4928088,21.9628322 59.5522425,22.2311223 58.488839,22.2311223" id="Fill-14" fill="#4BAE4F"></path>
                                    </g>
                                </g>
                                <g id="Group">
                                    <path d="M26.2376742,21.2368528 C27.4747184,19.1410249 28.1870814,16.6994279 28.1870814,14.0899875 C28.1870814,10.7758379 27.0394762,7.73163643 25.1236523,5.32576443 L15.4902515,21.2368528 L26.2376742,21.2368528" id="Fill-1" fill="#4BAE4F"></path>
                                    <path d="M23.5689658,3.6617253 C21.0662499,1.38791342 17.7419086,0.00256427422 14.093978,0.00256427422 C9.89495429,0.00256427422 6.12726643,1.83969191 3.54537322,4.75154184 L16.5450362,4.75154184 L4.67758613,24.5696517 C7.17353867,26.8115267 10.4736836,28.177061 14.093978,28.177061 C18.2924187,28.177061 22.0599899,26.3399333 24.6417082,23.4280834 L11.600999,23.4280834 L23.5689658,3.6617253" id="Fill-2" fill="#4BAE4F"></path>
                                    <path d="M1.94940721,6.94306383 C0.712654534,9.0385421 0,11.4807219 0,14.0899875 C0,17.432111 1.16696232,20.5008478 3.11257975,22.9162776 L12.6778227,6.94306383 L1.94940721,6.94306383" id="Fill-4" fill="#4BAE4F"></path>
                                    <path d="M4.67758613,24.5696517 L16.5450362,4.75154184 L3.54537322,4.75154184 C2.94612072,5.42728638 2.41117796,6.16055224 1.94940721,6.94306383 L12.6778227,6.94306383 L3.11257975,22.9162776 C3.58933473,23.5084501 4.11232509,24.0617505 4.67758613,24.5696517" id="Fill-6" fill="#FFFFFF"></path>
                                    <mask id="mask-2" fill="white">
                                        <use xlink:href="#path-1"></use>
                                    </mask>
                                    <g id="Clip-8"></g>
                                    <path d="M23.5689658,3.6617253 L11.600999,23.4280834 L24.6417082,23.4280834 C25.2411939,22.7523389 25.7757869,22.0187816 26.2376742,21.2368528 L15.4902515,21.2368528 L25.1236523,5.32576443 C24.6496376,4.73091109 24.1316031,4.17236554 23.5689658,3.6617253" id="Fill-7" fill="#FFFFFF" mask="url(#mask-2)"></path>
                                </g>
                            </g>
                        </g>
                    </g>
                </g>
            </g>
        </g>
    </g>
</svg>